:SAMPLES-PER-SECOND 30
:FRAME-RANGE 1-663
:FULLY-SPECIFIED
:DEGREES
270
root  -29.3799 37.8667 91.628 -173.357 51.0925 -178.888
RightUpLeg  -14.6961 7.45583 -18.3364
RightLeg  38.171 -5.33825 -4.74629
RightFoot  -6.92383 -0.347509 7.77495
RightToes  -3.4386e-010 1.2921e-014 -6.02303e-014
Spine  -0.737139 -3.67626 -6.8969
Spine1  7.08254 -3.84611 -0.804939
HEad  26.4508 -22.1829 7.02213
LeftShoulder1  2.12751 -5.96355 -16.4894
LeftArm  21.6569 -17.8641 -45.6458
LeftForeArm  -17.1244 -24.2485 -6.00513
LeftHand  0.236559 -0.141458 -4.98758
RightShoulder  1.90428 2.62258 26.1109
RightArm  -5.75132 7.04783 54.9938
RightForeArm  9.56688 26.147 5.10964
RightHand  -0.264577 -0.759913 -6.58746
LeftUpLeg  -24.7572 5.50229 6.62136
LeftLeg  23.7366 7.25965 3.83127
LeftFoot  -4.77602 0.44618 -7.27429
LeftToes  -7.12384e-010 -7.51861e-011 -8.34901e-011
271
root  -29.5519 38.0892 90.692 -172.982 51.1609 -178.412
RightUpLeg  -15.7051 7.75173 -15.495
RightLeg  38.5734 -4.26014 -3.89863
RightFoot  -8.34722 -0.251648 7.44414
RightToes  -3.4386e-010 1.2921e-014 -6.02303e-014
Spine  -0.670431 -4.0938 -7.88755
Spine1  6.92936 -4.48333 0.159162
HEad  26.5289 -22.9108 7.20321
LeftShoulder1  2.18021 -6.20758 -16.4516
LeftArm  21.9583 -18.7731 -45.7991
LeftForeArm  -17.2949 -23.609 -5.89844
LeftHand  0.246757 -0.073179 -5.27708
RightShoulder  1.85381 2.41984 26.3723
RightArm  -5.86448 6.89144 55.0195
RightForeArm  9.27318 25.654 5.01486
RightHand  -0.270528 -0.688227 -6.64272
LeftUpLeg  -23.6114 5.30315 5.54934
LeftLeg  23.0443 7.66232 3.91684
LeftFoot  -5.23174 0.349329 -5.9553
LeftToes  -7.12384e-010 -7.51861e-011 -8.34901e-011
272
root  -29.6943 38.2886 89.8027 -172.623 51.2718 -178.089
RightUpLeg  -16.6722 7.42183 -12.5042
RightLeg  38.0506 -4.04923 -3.65343
RightFoot  -9.79639 -0.170091 7.66025
RightToes  -3.4386e-010 1.2921e-014 -6.02303e-014
Spine  -0.761591 -4.42594 -8.56117
Spine1  6.87941 -4.89439 0.697495
HEad  25.965 -23.7812 7.91155
LeftShoulder1  2.21659 -6.49313 -16.1282
LeftArm  23.1403 -19.8113 -45.821
LeftForeArm  -18.0927 -23.7424 -5.94784
LeftHand  0.234138 0.188162 -5.29559
RightShoulder  1.82125 2.26475 26.6984
RightArm  -6.30057 6.47837 54.6784
RightForeArm  8.98197 25.6782 5.03584
RightHand  -0.27074 -0.593967 -6.52743
LeftUpLeg  -22.5072 5.11585 4.46699
LeftLeg  22.2194 8.09431 3.99407
LeftFoot  -5.71501 0.282422 -5.04849
LeftToes  -7.12384e-010 -7.51861e-011 -8.34901e-011
273
root  -29.8029 38.4636 88.963 -172.04 51.7187 -177.515
RightUpLeg  -17.6248 7.1244 -9.30358
RightLeg  36.602 -4.4771 -3.81504
RightFoot  -10.4408 -0.132649 7.82863
RightToes  -3.4386e-010 1.2921e-014 -6.02303e-014
Spine  -0.810859 -4.64616 -8.97167
Spine1  6.68493 -5.16819 1.22641
HEad  25.3025 -24.333 8.54954
LeftShoulder1  2.24894 -6.75094 -15.8462
LeftArm  23.6726 -20.7532 -45.9983
LeftForeArm  -18.2022 -23.718 -5.95046
LeftHand  0.239944 0.168601 -5.403
RightShoulder  1.76072 2.06425 26.7893
RightArm  -6.96855 5.99123 54.7181
RightForeArm  9.12254 25.6957 5.03222
RightHand  -0.264897 -0.477909 -6.24656
LeftUpLeg  -21.4305 5.52261 3.63598
LeftLeg  21.4442 8.28242 3.91585
LeftFoot  -6.24401 0.230179 -4.32888
LeftToes  -7.12384e-010 -7.51861e-011 -8.34901e-011
274
root  -29.9154 38.5846 88.1587 -171.659 52.3927 -177.229
RightUpLeg  -18.695 6.46246 -6.49925
RightLeg  34.5089 -4.65728 -3.67965
RightFoot  -10.8122 -0.108378 7.53535
RightToes  -3.4386e-010 1.2921e-014 -6.02303e-014
Spine  -0.848882 -4.85747 -9.28233
Spine1  6.54029 -5.38193 1.60066
HEad  24.4381 -24.6789 9.22234
LeftShoulder1  2.27766 -6.95736 -15.6604
LeftArm  24.0885 -21.8802 -46.0699
LeftForeArm  -18.0888 -23.5031 -5.93324
LeftHand  0.250329 0.100363 -5.55327
RightShoulder  1.73534 1.99194 26.7538
RightArm  -7.41172 5.74873 54.7058
RightForeArm  9.23683 25.7543 5.03921
RightHand  -0.262165 -0.379343 -6.07036
LeftUpLeg  -20.5316 6.06987 2.64064
LeftLeg  20.8902 8.6694 3.87488
LeftFoot  -6.73487 0.17016 -3.22547
LeftToes  -7.12384e-010 -7.51861e-011 -8.34901e-011
275
root  -30.0026 38.6822 87.3919 -171.389 52.8461 -176.844
RightUpLeg  -19.1999 5.05577 -3.76372
RightLeg  31.3193 -4.50159 -3.18294
RightFoot  -10.7454 -0.114542 7.95645
RightToes  -3.4386e-010 1.2921e-014 -6.02303e-014
Spine  -0.673567 -5.15326 -9.39864
Spine1  6.39625 -5.71329 1.96778
HEad  23.7167 -25.0672 9.55275
LeftShoulder1  2.32258 -7.15818 -15.6639
LeftArm  24.6697 -22.9861 -45.9927
LeftForeArm  -18.2738 -23.456 -5.94268
LeftHand  0.257328 0.0837217 -5.68767
RightShoulder  1.72586 1.96783 26.7217
RightArm  -8.01932 5.553 54.6014
RightForeArm  9.39721 25.8854 5.05999
RightHand  -0.255713 -0.180132 -5.71408
LeftUpLeg  -19.6822 6.96954 1.78151
LeftLeg  20.672 8.52209 3.6325
LeftFoot  -7.08183 0.114102 -1.92449
LeftToes  -7.12384e-010 -7.51861e-011 -8.34901e-011
276
root  -30.0981 38.7558 86.6751 -171.037 53.7027 -176.342
RightUpLeg  -19.7814 5.91055 -1.61975
RightLeg  27.6008 -4.48908 -2.76541
RightFoot  -10.3112 -0.140331 7.79525
RightToes  -3.4386e-010 1.2921e-014 -6.02303e-014
Spine  -0.414948 -5.27573 -9.18498
Spine1  6.13192 -5.84167 2.20638
HEad  23.3515 -25.4802 9.56807
LeftShoulder1  2.3724 -7.40527 -15.6126
LeftArm  24.9755 -23.9844 -46.1596
LeftForeArm  -18.5869 -23.1717 -5.97554
LeftHand  0.244208 0.274833 -5.62815
RightShoulder  1.69745 1.88573 26.6876
RightArm  -8.66792 5.56321 54.5765
RightForeArm  9.52016 25.9373 5.06502
RightHand  -0.253823 -0.166806 -5.65866
LeftUpLeg  -18.8951 7.84536 1.04628
LeftLeg  20.5944 8.60653 3.60397
LeftFoot  -7.66085 0.0860661 -1.24638
LeftToes  -7.12384e-010 -7.51861e-011 -8.34901e-011
277
root  -30.1691 38.8096 86.0055 -170.545 54.4713 -175.548
RightUpLeg  -20.1916 7.85135 0.196924
RightLeg  23.5256 -4.42076 -2.31897
RightFoot  -9.83968 -0.160351 7.11942
RightToes  -3.4386e-010 1.2921e-014 -6.02303e-014
Spine  -0.265297 -5.46296 -8.92524
Spine1  6.15091 -6.09213 2.5721
HEad  23.3782 -25.8625 9.21413
LeftShoulder1  2.44562 -7.73616 -15.6116
LeftArm  24.6126 -24.7485 -46.3355
LeftForeArm  -18.4938 -22.7982 -6.03318
LeftHand  0.250582 0.235066 -5.72353
RightShoulder  1.67503 1.80785 26.7469
RightArm  -9.45638 5.83213 54.4927
RightForeArm  10.0113 25.8384 5.0165
RightHand  -0.258554 0.262081 -5.36179
LeftUpLeg  -18.0739 8.43594 0.56228
LeftLeg  20.6321 8.92688 3.77679
LeftFoot  -8.32839 0.0629498 -0.490842
LeftToes  -7.12384e-010 -7.51861e-011 -8.34901e-011
278
root  -30.201 38.8517 85.3754 -170.227 55.0096 -175.094
RightUpLeg  -20.6454 8.63709 1.54221
RightLeg  19.4352 -3.03666 -1.3971
RightFoot  -8.9917 -0.208932 7.19504
RightToes  -3.4386e-010 1.2921e-014 -6.02303e-014
Spine  -0.40123 -5.78718 -9.23843
Spine1  6.46061 -6.55227 3.2588
HEad  23.6133 -26.4245 9.00054
LeftShoulder1  2.49749 -7.96415 -15.6246
LeftArm  24.1638 -25.4171 -46.6856
LeftForeArm  -18.3231 -22.5459 -6.08719
LeftHand  0.23864 0.361147 -5.60808
RightShoulder  1.5418 1.42569 26.5537
RightArm  -10.5465 6.1178 55.0209
RightForeArm  11.1461 25.7238 4.93002
RightHand  -0.2611 0.500117 -5.22423
LeftUpLeg  -17.313 8.87676 -0.0213585
LeftLeg  20.5251 9.14497 3.82811
LeftFoot  -8.92723 0.0511621 0.117815
LeftToes  -7.12384e-010 -7.51861e-011 -8.34901e-011
279
root  -30.1944 38.8835 84.7718 -170.356 55.4249 -175.09
RightUpLeg  -21.1025 9.47858 2.29805
RightLeg  15.7617 -1.08143 -0.580011
RightFoot  -7.50621 -0.291922 7.18298
RightToes  -3.4386e-010 1.2921e-014 -6.02303e-014
Spine  -0.373119 -6.15562 -9.7022
Spine1  6.52713 -7.03042 3.78109
HEad  24.2765 -27.082 8.86438
LeftShoulder1  2.54912 -8.12835 -15.7701
LeftArm  24.3028 -25.9975 -46.8838
LeftForeArm  -18.3522 -22.4289 -6.12593
LeftHand  0.241139 0.411564 -5.73121
RightShoulder  1.48616 1.25902 26.5157
RightArm  -11.2359 6.00381 54.881
RightForeArm  11.3979 26.1389 5.0092
RightHand  -0.262022 0.532811 -5.21661
LeftUpLeg  -16.2611 8.84496 -0.730501
LeftLeg  20.0553 9.66381 3.87834
LeftFoot  -9.47796 0.0461631 0.663719
LeftToes  -7.12384e-010 -7.51861e-011 -8.34901e-011
280
root  -30.1453 38.8836 84.1902 -170.679 55.8695 -175.253
RightUpLeg  -21.6906 10.511 2.85994
RightLeg  13.1945 1.26773 -0.286962
RightFoot  -7.06659 -0.286626 6.38383
RightToes  -3.4386e-010 1.2921e-014 -6.02303e-014
Spine  -0.41505 -6.42815 -10.056
Spine1  6.54657 -7.31555 3.95932
HEad  24.8625 -27.913 8.84592
LeftShoulder1  2.61709 -8.37808 -15.8846
LeftArm  24.5795 -26.4756 -47.2563
LeftForeArm  -18.3194 -22.363 -6.14894
LeftHand  0.239795 0.484371 -5.79507
RightShoulder  1.42224 1.07411 26.418
RightArm  -12.0385 5.54474 54.5873
RightForeArm  11.7346 26.7559 5.13008
RightHand  -0.244456 0.441693 -4.9384
LeftUpLeg  -15.0999 8.31115 -1.43713
LeftLeg  19.6211 10.7267 4.06813
LeftFoot  -10.1697 0.0499047 1.09587
LeftToes  -7.12384e-010 -7.51861e-011 -8.34901e-011
281
root  -30.0489 38.8539 83.6307 -171.277 56.3252 -175.712
RightUpLeg  -22.3523 11.3566 3.15646
RightLeg  11.7484 3.13305 -0.172356
RightFoot  -7.274 -0.276801 6.39369
RightToes  -3.4386e-010 1.2921e-014 -6.02303e-014
Spine  -0.3582 -6.72669 -10.5674
Spine1  6.33943 -7.56704 3.98437
HEad  25.2981 -28.4685 8.84871
LeftShoulder1  2.65353 -8.43546 -16.104
LeftArm  24.5893 -26.6963 -47.6581
LeftForeArm  -17.9282 -22.569 -6.06405
LeftHand  0.237426 0.635861 -5.89101
RightShoulder  1.39771 1.00819 26.3386
RightArm  -12.4799 4.94951 54.0756
RightForeArm  11.4122 27.3809 5.29027
RightHand  -0.234524 0.299648 -4.8442
LeftUpLeg  -13.8638 7.32583 -2.21244
LeftLeg  19.2185 12.2303 4.32441
LeftFoot  -11.0091 0.062819 1.14346
LeftToes  -7.12384e-010 -7.51861e-011 -8.34901e-011
